Coordinates
version=1
nRows=16
nColumns=22
inDegrees=yes

Units are S.I. units (second, meters, Newtons, ...)
If the header above contains a line with 'inDegrees', this indicates whether rotational values are in degrees (yes) or radians (no).

endheader
time	pelvis_tilt	pelvis_list	pelvis_rotation	pelvis_tx	pelvis_ty	pelvis_tz	hip_flexion_r	hip_adduction_r	hip_rotation_r	knee_angle_r	ankle_angle_r	subtalar_angle_r	hip_flexion_l	hip_adduction_l	hip_rotation_l	knee_angle_l	ankle_angle_l	subtalar_angle_l	lumbar_extension	lumbar_bending	lumbar_rotation
      0.01000000	     -3.17102448	     -4.52845546	     -0.98636389	      1.12650236	      0.94180335	     -0.28379442	      7.54308199	      3.99706986	     -3.11052739	    -16.50350798	     11.55942120	     -1.87934340	      9.04566234	     -7.49527170	     -6.11225654	    -22.68671154	     13.93978814	     -2.29600485	     -4.28277413	      2.07880480	      1.10203880
      0.02000000	     -3.17294992	     -4.52877566	     -0.98990837	      1.12649054	      0.94180297	     -0.28378115	      7.54662893	      3.99811988	     -3.11300721	    -16.50319622	     11.55481221	     -1.88102131	      9.04668041	     -7.49655850	     -6.11553811	    -22.68400197	     13.94074898	     -2.29306709	     -4.28960273	      2.07889495	      1.10323020
      0.03000000	     -3.17396039	     -4.52858896	     -0.99004352	      1.12650528	      0.94179985	     -0.28377333	      7.54661628	      3.99824559	     -3.11311571	    -16.50338176	     11.55450233	     -1.88114002	      9.04645141	     -7.49672525	     -6.11575479	    -22.68398583	     13.94082951	     -2.29286679	     -4.29029985	      2.07904431	      1.10329838
      0.04000000	     -3.17703739	     -4.52932961	     -0.99538134	      1.12648427	      0.94179926	     -0.28375195	      7.55159898	      4.00014343	     -3.11465987	    -16.50201571	     11.55143104	     -1.88246374	      9.04834196	     -7.49872751	     -6.11832681	    -22.68006259	     13.94220232	     -2.29070032	     -4.29994933	      2.07940170	      1.10325259
      0.05000000	     -3.17549277	     -4.54098627	     -1.01423408	      1.12648297	      0.94180514	     -0.28370642	      7.56419689	      4.01469620	     -3.11270011	    -16.52602200	     11.51921822	     -1.89711967	      9.03776170	     -7.51758867	     -6.14785211	    -22.67161600	     13.95716353	     -2.26710329	     -4.31021826	      2.09348054	      1.11712970
      0.06000000	     -3.17869943	     -4.54070359	     -1.01688200	      1.12647356	      0.94180283	     -0.28368514	      7.56620003	      4.01552132	     -3.11245871	    -16.52161937	     11.51955125	     -1.89814997	      9.04081618	     -7.51856647	     -6.14866101	    -22.67015993	     13.95825715	     -2.26561975	     -4.31733279	      2.09250596	      1.11812995
      0.07000000	     -3.18163692	     -4.54072235	     -1.02091954	      1.12646667	      0.94180077	     -0.28366090	      7.56843267	      4.01679565	     -3.11204439	    -16.51821258	     11.51978754	     -1.89922337	      9.04295525	     -7.51982793	     -6.14950947	    -22.66909286	     13.95948527	     -2.26402663	     -4.32394522	      2.09224808	      1.11910762
      0.08000000	     -3.18448288	     -4.54101112	     -1.02571621	      1.12645923	      0.94179886	     -0.28363428	      7.57092992	      4.01838440	     -3.11138327	    -16.51563998	     11.51995622	     -1.90034212	      9.04482152	     -7.52163309	     -6.15051244	    -22.66797408	     13.96084841	     -2.26230955	     -4.33081029	      2.09249697	      1.12047191
      0.09000000	     -3.18699904	     -4.54172999	     -1.03118993	      1.12644883	      0.94179619	     -0.28360549	      7.57385902	      4.02063497	     -3.11030295	    -16.51385983	     11.52001745	     -1.90161364	      9.04640144	     -7.52384331	     -6.15188821	    -22.66702097	     13.96242786	     -2.26027367	     -4.33799995	      2.09326573	      1.12266898
      0.10000000	     -3.18946648	     -4.54268656	     -1.03727483	      1.12643895	      0.94179537	     -0.28357465	      7.57703130	      4.02335817	     -3.10871745	    -16.51306947	     11.51988336	     -1.90306825	      9.04784322	     -7.52685959	     -6.15367602	    -22.66627666	     13.96424493	     -2.25784439	     -4.34582391	      2.09462458	      1.12593753
      0.11000000	     -3.19149489	     -4.54410362	     -1.04378470	      1.12642769	      0.94179536	     -0.28354224	      7.58049717	      4.02699371	     -3.10635620	    -16.51365008	     11.51934647	     -1.90482041	      9.04901026	     -7.53044041	     -6.15625271	    -22.66609158	     13.96646140	     -2.25476542	     -4.35408641	      2.09672298	      1.13068099
      0.12000000	     -3.18671771	     -4.55863215	     -1.06691466	      1.12641384	      0.94179782	     -0.28347759	      7.58877600	      4.04818836	     -3.08100359	    -16.53654666	     11.51056668	     -1.91799634	      9.04429156	     -7.55425711	     -6.18189030	    -22.67726638	     13.98337890	     -2.23019523	     -4.36961443	      2.11309498	      1.16906206
      0.13000000	     -3.18999581	     -4.55751350	     -1.06932032	      1.12640670	      0.94179638	     -0.28345060	      7.59075316	      4.04873711	     -3.08076197	    -16.53249145	     11.51041433	     -1.91870245	      9.04681611	     -7.55488198	     -6.18375643	    -22.67467976	     13.98456244	     -2.22878864	     -4.37537634	      2.11246567	      1.16808838
      0.14000000	     -3.19270322	     -4.55644465	     -1.07199474	      1.12640444	      0.94179599	     -0.28342389	      7.59278109	      4.04952450	     -3.08038695	    -16.53006049	     11.50993016	     -1.91940561	      9.04851909	     -7.55542857	     -6.18541776	    -22.67318276	     13.98571955	     -2.22724152	     -4.38056361	      2.11252911	      1.16733749
      0.15000000	     -3.19520910	     -4.55552686	     -1.07471715	      1.12640175	      0.94179561	     -0.28339706	      7.59524331	      4.05034594	     -3.07988037	    -16.52878351	     11.50918004	     -1.92010277	      9.05020298	     -7.55625081	     -6.18704619	    -22.67186797	     13.98690892	     -2.22554872	     -4.38626679	      2.11289231	      1.16662702
      0.16000000	     -3.19766116	     -4.55474704	     -1.07751982	      1.12639906	      0.94179625	     -0.28337032	      7.59827797	      4.05144635	     -3.07921879	    -16.52856145	     11.50817789	     -1.92080697	      9.05185016	     -7.55713016	     -6.18880894	    -22.67063201	     13.98810645	     -2.22365247	     -4.39246341	      2.11349480	      1.16570692
